<svg width="28" height="38" viewBox="0 0 28 38" fill="none" xmlns="http://www.w3.org/2000/svg">
<path d="M26.7609 4.24824C26.4135 3.7516 25.906 3.73733 25.3277 3.72108C25.2622 3.71924 25.1957 3.71737 25.1285 3.71477C25.0773 3.71257 25.0208 3.71342 24.9618 3.71431C24.7273 3.71782 24.4529 3.72194 24.3147 3.53796C24.1545 3.32467 24.1697 2.91248 24.1822 2.57219C24.1862 2.46467 24.1899 2.36426 24.1877 2.27964C24.1652 1.48916 24.1182 0.649471 23.7913 0.368764C23.5449 0.158153 22.8075 0.18733 22.1274 0.214239C21.907 0.222962 21.6925 0.231446 21.5028 0.231446H7.02783C6.73639 0.231446 6.43089 0.209292 6.13072 0.187525C5.54582 0.14511 4.98116 0.104162 4.58019 0.231446C3.99825 0.417074 3.95885 1.39251 3.92175 2.31103L3.91975 2.36045C3.8886 3.11872 3.6873 3.70384 3.02015 3.6449C2.24421 3.57746 1.4721 3.55619 1.12128 4.21178C0.706942 4.98746 0.792394 5.79942 0.945452 7.25377C0.967315 7.46151 0.990558 7.68237 1.01392 7.91809H26.9847C26.9996 7.7458 27.0154 7.57571 27.0309 7.40837C27.1525 6.09991 27.2585 4.95986 26.7609 4.24824Z" fill="#8047F8"/>
<path fill-rule="evenodd" clip-rule="evenodd" d="M3.03645 9.36052C3.44206 14.4853 3.84325 19.616 4.24444 24.7467L4.24469 24.7498C4.46252 27.5357 4.68035 30.3215 4.8989 33.1064H5.72756C5.78403 33.5424 5.84864 34.0805 5.91676 34.648C6.05504 35.7998 6.20781 37.0722 6.33624 37.8542H6.4279C7.27196 37.5658 13.1071 35.2375 13.1097 25.9677C13.1086 25.9412 13.1096 25.9148 13.1125 25.8885H11.6709C11.6011 25.8879 11.5335 25.8662 11.4784 25.8266C11.4233 25.7871 11.3838 25.732 11.366 25.6697C11.2255 25.3457 11.1122 25.0123 11.0272 24.6723C10.1791 25.1194 9.50561 25.8022 9.10273 26.6233C8.7203 25.7823 8.67024 24.8441 8.96131 23.9725C9.25238 23.101 9.86607 22.3515 10.6951 21.8551C10.7058 19.1502 11.7907 16.5427 13.7444 14.5262L13.7749 14.5012C13.8317 14.4553 13.9044 14.4298 13.9798 14.4293C14.0234 14.4296 14.0665 14.4383 14.1062 14.4548C14.1465 14.4715 14.1825 14.4958 14.212 14.5262C16.1885 16.5454 17.2677 19.178 17.2341 21.8989C18.0787 22.3815 18.7049 23.1304 18.9965 24.0067C19.2881 24.883 19.2253 25.8271 18.8198 26.664C18.4191 25.8415 17.745 25.1582 16.8953 24.7129C16.8434 25.0424 16.7478 25.3648 16.6107 25.6728C16.5633 25.8041 16.4684 25.8885 16.3736 25.8885H14.8362C14.8386 25.9043 14.8403 25.9201 14.8413 25.9359L14.8419 25.9396V25.9472C14.8424 25.9609 14.8425 25.9745 14.8419 25.9882C14.863 35.5242 21.067 37.6886 21.59 37.8542H21.7688C21.8145 37.1031 21.9631 36.0667 22.1081 35.0563C22.2079 34.36 22.306 33.6761 22.3674 33.1064H23.2057C23.474 29.5985 23.7499 26.1004 24.0259 22.6022L24.026 22.6003L24.0261 22.5993C24.3791 18.1248 24.7321 13.6501 25.0691 9.15454H3.09013C3.02686 9.16609 3.03118 9.26269 3.03645 9.36052ZM13.9798 14.4293L13.9782 14.4293H13.9816L13.9798 14.4293Z" fill="#8047F8"/>
</svg>
